<svg width="77px" height="77px" viewBox="0 0 77 77" version="1.1" xmlns="http://www.w3.org/2000/svg" xmlns:xlink="http://www.w3.org/1999/xlink"><title>metropolis-overview-1</title><desc>Created with Sketch.</desc><defs/><g transform="translate(2 2)" stroke="none" stroke-width="1" fill="none" fill-rule="evenodd"><g stroke-width="0.75"><path d="M71,35.5 C64.2,26.5 50.9,20.4 35.6,20.4 C20.3,20.4 7,26.5 0.2,35.5 C7,44.5 20.3,50.6 35.6,50.6 C51,50.7 64.3,44.5 71,35.5 L71,35.5 Z" stroke="#010101"/><path d="M66.6,6.8 C53.4,4.4 36.7,9.8 23.3,22.2 C9.9,34.6 3.2,50.8 4.6,64.2 C17.8,66.6 34.5,61.2 47.9,48.8 C61.4,36.4 68,20.2 66.6,6.8 L66.6,6.8 Z" stroke="#23526E"/><path d="M67.2,63.6 C68.3,50.2 61.3,34.2 47.6,22 C33.9,9.9 17.2,4.8 4,7.5 C2.9,20.9 9.9,36.9 23.6,49.1 C37.3,61.2 54.1,66.3 67.2,63.6 L67.2,63.6 Z" stroke="#23526E"/><path d="M35.7,70.9 C44.7,64.1 50.8,50.8 50.8,35.5 C50.8,20.2 44.7,6.9 35.7,0.1 C26.7,6.9 20.6,20.2 20.6,35.5 C20.5,50.8 26.6,64.1 35.7,70.9 L35.7,70.9 Z" stroke="#010101"/></g><circle id="Oval" fill="#010101" cx="49" cy="22" r="3"/><circle id="Oval" fill="#010101" cx="22" cy="22" r="3"/><circle id="Oval" fill="#010101" cx="49" cy="49" r="3"/><circle id="Oval" fill="#23526E" cx="66" cy="7" r="3"/><circle id="Oval" fill="#23526E" cx="4" cy="7" r="3"/><circle id="Oval" fill="#23526E" cx="66" cy="64" r="3"/><circle id="Oval" fill="#23526E" cx="5" cy="64" r="3"/><circle fill="#010101" cx="22" cy="49" r="3"/></g></svg>