<svg width="86px" height="68px" viewBox="0 0 86 68" version="1.1" xmlns="http://www.w3.org/2000/svg" xmlns:xlink="http://www.w3.org/1999/xlink"><title>gotham-overview-4</title><desc>Created with Sketch.</desc><defs/><g transform="translate(4 5)" stroke="none" stroke-width="1" fill="none" fill-rule="evenodd"><path d="M2.7,13.4 L20.7,3 L39.2,13.5 L39.2,34.3 L20.7,44.7 L2.7,34.3 L2.7,13.4 Z" id="Shape" stroke="#23526E" stroke-width="0.75"/><path d="M21,24 L39.1,13.5 L57.2,24 L57.2,44.8 L39.1,55.3 L21,44.8 L21,24 Z" id="Shape" stroke="#010101" stroke-width="0.75"/><path d="M39.2,34.3 L39.2,13.6 L56.7,3.4 L74.8,13.8 L74.8,34.7 L57.1,45 L39.2,34.3 Z" stroke="#010101" stroke-width="0.75"/><circle id="Oval" fill="#23526E" cx="21" cy="3" r="3"/><circle id="Oval" fill="#010101" cx="57" cy="3" r="3"/><circle id="Oval" fill="#010101" cx="74" cy="35" r="3"/><circle id="Oval" fill="#010101" cx="39" cy="55" r="3"/><circle fill="#23526E" cx="3" cy="35" r="3"/></g></svg>