<svg width="94px" height="77px" viewBox="0 0 94 77" version="1.1" xmlns="http://www.w3.org/2000/svg" xmlns:xlink="http://www.w3.org/1999/xlink"><title>metropolis-overview-4</title><desc>Created with Sketch.</desc><defs/><g transform="translate(2 3)" stroke="none" stroke-width="1" fill="none" fill-rule="evenodd"><path d="M18.5,29.3 L84.6,29.2" id="Shape" stroke="#23536F" stroke-width="0.75"/><path d="M52.4,28.9 L60.3,66.9" id="Shape" stroke="#23536F" stroke-width="0.75"/><path d="M25.9,14 L2.2,35.5" id="Shape" stroke="#010101" stroke-width="0.75"/><path d="M18.5,29.3 L25.8,13.5" id="Shape" stroke="#23536F" stroke-width="0.75"/><path d="M1.9,36.1 L18.8,29.6" id="Shape" stroke="#010101" stroke-width="0.75"/><path d="M26.2,14.4 L52.1,28.8" id="Shape" stroke="#23536F" stroke-width="0.75"/><path d="M38.9,36.1 L51.1,29.2" id="Shape" stroke="#010101" stroke-width="0.75"/><path d="M61.5,4 L52.3,29" id="Shape" stroke="#23536F" stroke-width="0.75"/><path d="M62.1,3.5 L70.3,34.8" id="Shape" stroke="#010101" stroke-width="0.75"/><path d="M63,3.7 L82.9,29.5" id="Shape" stroke="#23536F" stroke-width="0.75"/><path d="M39,36.9 L61.2,3.6" id="Shape" stroke="#010101" stroke-width="0.75"/><circle id="Oval" fill="#010101" cx="62.3" cy="3.3" r="3.3"/><path d="M40.5,37.2 L26.6,14.9" id="Shape" stroke="#010101" stroke-width="0.75"/><path d="M2.3,35.7 L24.1,53.7 L40.8,35.1" id="Shape" stroke="#010101" stroke-width="0.75"/><path d="M39.4,35.7 L60,67.8 L70.5,35.9 L83.3,29.5" id="Shape" stroke="#010101" stroke-width="0.75"/><path d="M24.3,53.5 L18.9,28.3" id="Shape" stroke="#23536F" stroke-width="0.75"/><path d="M82.9,30.2 L60,68" id="Shape" stroke="#23536F" stroke-width="0.75"/><path d="M2.2,35.6 L70.5,35.5" stroke="#010101" stroke-width="0.75"/><circle id="Oval" fill="#010101" cx="26" cy="15" r="3"/><circle id="Oval" fill="#23526E" cx="24" cy="54" r="3"/><circle id="Oval" fill="#23526E" cx="52" cy="29" r="3"/><circle id="Oval" fill="#23526E" cx="83" cy="29" r="3"/><circle id="Oval" fill="#010101" cx="19" cy="29" r="3"/><circle id="Oval" fill="#010101" cx="3" cy="35" r="3"/><circle id="Oval" fill="#010101" cx="40" cy="35" r="3"/><circle id="Oval" fill="#010101" cx="70" cy="35" r="3"/><circle fill="#23536F" cx="60.3" cy="67.3" r="3.3"/></g></svg>